<svg width="191" height="191" viewBox="0 0 191 191" fill="none" xmlns="http://www.w3.org/2000/svg">
<rect width="191" height="191" rx="30" fill="#1C8FF8" fill-opacity="0.338428"/>
<path d="M100.743 184.581C96.5792 185.105 92.6176 185.327 88.5454 183.873C84.5038 182.431 81.8304 180.571 77.307 181.791C75.5903 182.254 74.072 183.107 72.41 183.698C68.261 185.174 65.357 184.809 61.1563 184.955C59.9962 184.995 59.0156 185.469 57.8892 184.895C52.2666 182.033 55.5519 174.107 48.1058 170.38C44.2002 168.426 42.424 169.366 39.2779 171.477C33.1967 175.557 25.7756 172.636 23.7877 165.725C23.0311 163.096 23.8561 160.709 24.8495 158.29L26.7375 153.881C30.5878 144.824 35.3919 136.109 40.7184 127.845L50.9382 113.286L62.2568 98.8096C67.0217 91.9734 72.529 82.3435 72.7281 73.77C72.7965 70.8255 71.874 65.5391 70.7462 62.9966C68.6829 58.345 65.7271 55.6477 64.3039 50.2382L63.8895 48.4028C63.5099 46.4092 62.3889 45.3278 61.3412 43.6308C60.2752 41.9043 59.3056 39.9566 58.6683 38.0291C57.8933 35.6849 57.3464 30.5295 58.047 28.5059C59.7559 23.5698 61.7717 19.6084 67.5138 18.2745C71.9989 17.2326 74.9292 18.7528 80.0844 16.6066C83.2588 15.2848 85.7217 13.1603 87.0935 9.95664C87.8745 8.13289 87.6714 6.94714 89.8201 6.07833C92.6711 5.9036 95.5977 6.0364 98.4567 6.03763L100.749 6.03853C103.574 6.06453 103.465 9.18885 104.652 11.1447C107.272 15.4636 112.116 17.7955 117.092 17.9376C119.087 17.9945 121.333 17.6993 123.276 18.1049C127.163 18.9158 130.647 22.1296 132.06 25.7868L132.357 26.6314C134.744 35.3545 131.927 40.7671 127.063 48.0415C127.657 50.9649 124.091 55.3711 122.638 57.9772C118.987 64.5225 117.438 73.922 120.178 81.147L121.146 84.122C124.299 94.7503 133.645 104.522 140.084 113.25C147.761 123.655 154.889 134.635 160.557 146.271C161.81 148.845 163.211 151.496 164.194 154.184L165.921 158.498C166.424 160.214 167.09 161.834 167.532 163.579C169.223 170.258 160.672 176.486 154.387 172.266C153.886 171.929 153.468 171.477 153 171.097C146.977 166.204 138.336 171.238 137.592 178.579C137.503 179.456 137.644 180.368 137.505 181.237C137.204 183.111 135.926 184.942 133.885 184.948L131.896 184.952C126.352 184.958 123.601 185.218 118.284 182.946C116.028 181.982 114.197 181.253 111.682 181.261C107.881 181.273 104.439 183.759 100.743 184.581ZM92.6831 11.8415C89.4613 18.4963 85.7966 21.433 78.3253 23.2285C77.6603 23.3881 76.6361 23.4678 76.0616 23.7983L77.351 29.9606C83.7919 29.6312 89.3072 29.8135 94.5498 34.5534L95.5057 35.4931L97.0136 34.152C101.4 30.8071 106.911 29.0788 112.433 29.8293L113.726 30.031L114.858 23.8343C113.27 23.3441 111.629 23.0792 110.049 22.5581C105.501 21.0584 101.511 17.7733 99.2599 13.5357C98.5397 12.1798 99.1234 11.8468 97.2451 11.8453L92.6831 11.8415ZM69.5213 23.8138C64.5622 25.0437 62.9941 29.6551 63.7516 34.2809C64.0073 35.8425 64.6744 38.3615 65.6489 39.5629L65.7961 39.5019C66.9425 37.4186 68.2246 35.4124 70.0996 33.9043C70.2674 33.7695 71.8132 32.7253 71.8244 32.6809C72.0157 31.9156 70.3378 25.1455 70.1076 23.8283C69.9069 23.808 69.7226 23.8024 69.5213 23.8138ZM120.904 23.7462L119.407 32.7033C122.24 34.4753 123.652 36.5787 125.111 39.406L125.335 39.6828L125.531 39.3696C126.986 36.3444 128.208 32.2293 127.082 28.9359C126.115 26.1069 123.983 23.8701 120.904 23.7462ZM80.9812 35.6655C73.3928 36.1376 67.7559 43.4496 70.6994 50.8276L71.2663 52.2095C71.9683 54.1386 73.5398 55.9284 74.6534 57.642C76.5518 60.563 77.4063 63.7464 77.9679 67.1484C78.1428 68.2073 78.1827 70.058 78.4536 70.9626L113.123 70.9643L113.527 67.0546C114.31 62.7479 115.451 58.8951 117.494 54.982C120.199 49.801 123.502 46.9604 119.291 40.6953C115.287 34.739 107.372 34.2908 101.722 38.1729C99.7497 39.528 97.0382 43.1158 95.0337 42.7981C92.7264 42.4325 90.0919 35.8632 80.9812 35.6655ZM109.5 76.9377L78.2639 77.0183C78.074 77.7672 78.0026 78.483 77.8565 79.2332L77.0621 82.5366C74.7125 91.2168 69.1317 99.958 63.6043 107.003L54.7558 117.937C45.8823 129.548 37.6154 143.004 31.9824 156.495L30.7489 159.448C30.1744 160.768 29.2698 162.278 29.3649 163.753C29.4983 165.824 31.7634 167.513 33.7141 167.518L33.8458 167.522C34.8438 167.525 36.3413 166.001 37.1981 165.499C43.1924 161.988 49.5717 163.145 54.5387 167.89C57.3949 170.619 58.7364 173.919 59.8318 177.614C59.9464 178 59.94 178.551 60.1637 178.875C66.9054 178.898 67.2499 179.125 73.2265 176.786C75.9889 175.705 79.5017 175.126 82.4433 175.624L85.3574 176.223C87.6843 176.946 90.0557 178.5 92.4766 178.764C95.9642 179.144 97.7955 179.449 101.325 178.21C102.706 177.725 103.992 176.991 105.377 176.492C108.044 175.532 113.026 174.813 115.878 175.71L116.173 175.777C118.612 176.325 120.544 177.679 122.853 178.442C125.347 179.267 129.085 179.179 131.763 179.01C132.058 166.335 147.051 158.6 156.633 166.335C157.129 166.735 157.952 167.713 158.547 167.854C159.756 168.142 161.141 167.096 161.58 166.042L161.758 165.536C162.347 163.918 157.457 153.297 156.4 151.109C151.808 141.6 146.467 132.499 140.472 123.805L132.633 113.056C124.447 102.758 117.048 93.7526 114.066 80.5973C113.915 79.9338 113.578 77.2333 113.367 76.9028L109.5 76.9377Z" fill="#00489C"/>
</svg>
