<svg width="191" height="191" viewBox="0 0 191 191" fill="none" xmlns="http://www.w3.org/2000/svg">
<rect width="191" height="191" rx="30" fill="#F97777"/>
<path d="M130.171 183.192C127.083 183.422 124.111 182.992 121.347 181.56C118.958 180.322 116.315 178.575 113.508 179.936L110.628 181.467C99.4162 186.936 95.1096 177.75 88.9985 179.942C87.4237 180.507 86.0916 181.512 84.5412 182.126C80.3442 183.788 74.8265 183.608 70.7075 181.762C69.2134 181.093 67.9175 180.075 66.4154 179.432C62.0187 177.552 59.6948 180.196 55.8643 181.676C51.562 183.338 45.9432 183.255 41.7309 181.39L39.0306 180.084C35.4911 178.39 35.2449 178.281 35.7968 174.538C36.3777 170.598 37.425 166.782 38.2955 162.907L47.5426 124.392L53.3696 106.48L60.2739 89.5476L70.8209 66.1777C71.6306 64.0899 71.5991 64.6456 71.0759 62.5026L65.3787 41.783C65.0952 40.8418 64.661 39.7296 64.616 38.749L64.5761 10.1957C64.5699 8.35339 64.7846 7.43439 66.7271 6.72348C70.5102 6.50314 76.0997 10.5485 78.2333 13.3224C79.0902 14.4365 79.7431 15.6617 80.5009 16.8379C86.4906 26.1326 99.2672 26.9854 105.681 17.7681C109.472 12.3209 111.578 8.66308 118.976 6.99927C120.299 6.70182 121.491 6.79326 122.282 8.09836L122.347 8.20882C122.929 9.1395 122.623 10.4816 122.623 11.5276L122.581 38.132C122.561 38.7205 122.591 39.4556 122.321 39.9833L122.217 40.1933C121.929 40.8407 121.796 41.6148 121.578 42.296L116.13 63.6143C115.91 64.7034 116.262 64.8094 116.748 65.7979L136.318 111.484L141.688 126.185C142.218 128.123 143.019 130.095 143.683 132.002L144.673 135.185C144.955 136.334 145.447 137.448 145.775 138.589L149.155 149.948C149.244 150.403 149.43 150.814 149.524 151.268L151.764 159.376C152.105 161.122 152.713 162.87 153.137 164.609L153.665 166.962C154.385 169.732 155.355 172.658 155.572 175.508C155.83 178.882 153.665 179.661 150.787 179.69L142.234 179.709C139.893 179.716 140.212 179.671 138.168 180.763C135.544 182.166 133.177 183.043 130.171 183.192ZM69.3319 12.2867L69.2901 28.7031C69.2899 32.4188 68.7415 36.4904 69.7579 40.1043L73.5322 53.4145C73.563 53.5538 73.6044 53.6689 73.6497 53.8022L74.257 56.0905L112.939 56.0539C113.184 55.5102 113.242 54.9579 113.399 54.3902L117.519 39.5242C117.824 37.1714 117.67 34.6765 117.675 32.306L117.667 14.4227C117.665 13.8379 117.761 13.0245 117.625 12.4716L117.5 12.5721C117.18 12.8154 116.754 12.8467 116.403 13.0385C112.239 15.3181 111.465 18.0006 108.824 21.4042C100.008 32.7622 83.9262 30.9212 76.4407 19.3118C73.6706 15.0158 73.9549 15.086 69.3319 12.2867ZM75.5176 60.787C75.5968 61.6161 75.8671 62.8524 76.1754 63.6701L111.495 63.666L111.537 63.3181L111.901 60.822L75.5176 60.787ZM74.9145 68.5814C74.2112 69.9874 73.7115 71.5951 73.1174 73.0479L65.3647 89.6526L57.9314 107.706L51.2869 128.495L42.5576 165.452C43.7614 166.65 45.9202 167.365 47.5348 167.787C51.177 168.74 53.4429 166.685 56.5172 165.361C61.2118 163.337 66.9584 163.593 71.4846 165.918C75.2939 167.874 76.9161 169.382 81.8377 167.767C83.091 167.356 84.1676 166.494 85.3294 165.89C88.84 164.067 93.4794 164.111 97.014 165.847C100.904 167.757 103.228 169.724 107.994 167.023C108.912 166.502 109.782 165.867 110.772 165.484C114.402 164.023 118.483 164.349 121.939 166.095C123.393 166.829 124.732 167.964 126.37 168.261C129.65 168.857 131.152 168.065 133.878 166.497C138.792 163.67 143.26 164.706 148.419 165.614C148.092 163.763 147.558 161.953 147.097 160.132L142.961 145.436L131.2 111.293L113.375 69.8653C113.191 69.4325 113.067 68.9683 112.806 68.5753L74.9145 68.5814ZM62.4229 168.845C57.8702 169.175 56.2193 171.628 52.4349 172.498C48.6761 173.362 44.68 172.269 41.4213 170.371L40.5442 174.34C40.481 174.656 40.2881 175.095 40.3234 175.404C41.5919 176.048 42.8256 176.655 44.1512 177.179L46.1467 177.864C47.9498 178.573 52.9926 177.772 54.6325 177.021L58.2425 175.154C64.1824 172.359 66.8183 174.569 71.7324 176.958C74.3928 178.251 77.5106 178.786 80.4575 178.337C83.5543 177.866 86.0366 175.553 89.053 175.022C96.3 173.747 98.276 178.847 104.791 178.322C110.59 177.856 113.09 171.647 121.852 176.385C123.25 177.141 124.594 178.063 126.19 178.338L126.459 178.383C132.021 178.992 133.713 177.608 138.56 175.265C139.534 174.794 141.096 174.987 142.179 174.984L147.819 174.975C148.786 174.974 149.823 175.046 150.78 174.943L150.171 171.976C150.071 171.529 150.015 170.999 149.819 170.585C143.533 169.777 140.424 167.999 134.8 171.491C132.152 173.134 129.058 173.445 126.027 173.057C123.54 172.738 121.839 171.285 119.69 170.214C112.249 166.508 108.566 176.112 98.5735 171.961C94.9591 170.46 92.5425 168.073 88.0292 169.923C86.9485 170.366 85.9966 171.063 84.962 171.6C81.1043 173.6 76.3284 173.612 72.4183 171.795C69.1608 170.281 66.2845 168.138 62.4229 168.845Z" fill="#FF0000"/>
</svg>
