<svg width="191" height="191" viewBox="0 0 191 191" fill="none" xmlns="http://www.w3.org/2000/svg">
<rect width="191" height="191" rx="30" fill="#FFF78C"/>
<path d="M125.945 173.487C122.73 174.096 122.414 174.401 119.655 176.001C112.114 180.374 104.039 179.631 97.8914 172.919C96.9862 171.93 96.3037 170.792 95.4468 169.77C90.5918 177.775 81.2785 181.161 72.8603 176.779C71.2161 175.924 69.6428 174.805 67.8677 174.229L65.598 173.646C61.9265 172.646 56.0245 174.602 51.3406 174.124C48.0827 173.792 40.7072 171.222 39.8153 167.514C39.672 166.919 39.8138 166.32 39.8981 165.726L42.0754 152.669C46.2341 129.452 52.9902 102.368 66.8644 82.8151C68.029 81.1737 69.4595 79.547 70.4161 77.7803C72.5787 73.7863 72.6787 68.6748 71.4991 64.3888C71.1395 63.0826 70.4969 61.8169 70.2182 60.498C69.9991 59.4618 69.922 58.3701 69.7418 57.3215C69.1851 54.0827 67.8863 51.4831 66.5945 48.5192C64.1659 42.9467 65.0204 41.1266 65.6311 35.9164C66.1878 31.167 64.0602 25.3928 62.094 21.0089L60.8447 18.3362C60.242 17.0903 59.6929 16.0167 60.5438 14.6829C62.1188 12.2142 63.7302 14.1082 64.8372 14.2062C66.5611 14.3586 68.7919 14.3888 70.4631 14.0223L73.7234 13.4161C75.0324 13.1617 76.3513 12.8094 77.6835 12.7245C78.9787 12.5889 80.3377 13.2089 80.8892 14.448L80.9476 14.5955C81.2097 15.2061 81.2005 15.8179 81.3227 16.4607L82.0425 19.7107C83.9986 27.2863 89.2826 34.6201 95.5787 39.1257C101.943 34.1103 106.271 28.1171 108.695 20.388L109.563 17.1135C109.905 15.5724 109.726 13.6774 111.59 13.0579L111.704 13.0211C112.965 12.5908 113.966 12.779 115.215 13.0153L117.883 13.3997C121.223 13.7952 124.556 13.8627 127.89 13.4453C129.269 13.2726 130.982 12.9628 131.719 14.5603L131.99 15.1386C133.673 19.4992 122.457 27.8916 125.425 37.8921C126.792 42.4983 124.776 47.7092 122.891 51.8379C121.331 55.2527 121.004 56.9814 120.217 60.395C119.52 63.4206 119.472 64.1283 119.235 67.268C118.633 75.2464 119.862 76.3737 123.769 82.2716C129.445 90.8393 133.623 99.9857 136.966 109.711L142.065 126.077C142.264 127.082 142.575 128.323 142.935 129.271L146.561 141.501C146.685 142.214 146.929 142.975 147.112 143.68L149.755 157.752C149.852 158.351 149.857 158.98 149.969 159.571L150.34 162.042C150.586 163.613 151.002 165.119 150.72 166.705L150.678 166.954C149.501 172.701 140.039 174.928 135.26 173.954C132.429 173.378 128.999 173.086 126.097 173.465L125.945 173.487ZM114.51 18.2754C112.463 28.8412 106.697 38.0273 97.7383 44.1158C95.2392 45.8141 94.6961 45.1204 92.5622 43.4958C85.1927 37.885 79.6231 30.6568 77.1509 21.6078C76.8678 20.5711 76.5406 19.4233 76.4485 18.3531L71.1891 19.3112C69.7723 19.5107 68.3502 19.5059 66.9229 19.5104C67.0253 19.7265 67.126 19.9353 67.1999 20.163L69.0812 24.7252C69.609 25.9361 69.9565 27.3145 70.2863 28.5929L70.5336 29.8633C70.9028 32.2023 71.0746 34.7269 70.8226 37.1006C70.4963 40.1706 70.0233 40.4129 70.4907 43.6278L73.6822 51.7603L75.5009 59.3689C75.6349 59.838 75.7158 60.3545 75.7634 60.8397L83.5614 62.0517C87.4452 62.5421 91.2954 62.6088 95.2142 62.6001L101.035 62.5603C103.551 62.4578 112.577 61.9181 114.745 60.6953L114.879 60.6018C115.261 57.5921 115.911 54.6864 117.101 51.8836C118.624 48.2965 121.077 44.3308 120.492 40.2609C120.343 39.2281 120.026 38.2334 119.841 37.2114C118.449 29.4989 122.107 25.2545 125.163 19.1618L114.51 18.2754ZM114.03 66.449L108.13 67.4163C101.558 68.2165 93.7653 68.2633 87.2279 67.7765L77.2515 66.7027C77.3828 68.8365 77.8008 70.9867 77.2753 73.1142L76.8605 75.4021L76.8587 75.7341C78.1981 75.9434 79.6063 75.739 80.9597 75.8505L87.857 76.4017L105.088 76.2155C106.337 76.124 107.596 75.9085 108.832 75.8423C110.687 75.7429 112.576 75.9261 114.422 75.755C113.928 72.8107 113.943 69.84 114.143 66.869C114.16 66.6251 114.24 66.6118 114.03 66.449ZM74.5392 80.9903L71.1121 85.9862C65.7072 93.761 61.6443 102.168 58.2955 111.027L53.4255 125.461L48.1579 147.802L45.2079 165.924C46.46 167.297 48.4149 167.965 50.1524 168.467C53.6716 169.568 55.777 168.536 59.1279 168.289L65.7139 168.31L66.0735 157.597L67.6821 138.483L71.5862 111.925L78.4046 81.0952L76.0465 81.0275C75.5562 81.0055 75.0229 80.9243 74.5392 80.9903ZM115.968 80.9898L112.726 81.1625L114.297 88.1842C114.711 89.6014 114.943 91.0788 115.298 92.5061L117.327 101.282C117.415 101.681 117.425 102.099 117.517 102.495L119.049 110.134L122.529 132.32L124.564 154.843L124.635 158.825C124.662 159.559 124.824 160.284 124.842 161.016L124.847 165.762C124.847 166.558 124.793 167.394 124.893 168.181C129.171 167.673 130.746 167.986 134.717 168.613C137.11 168.991 139.775 168.809 142.112 168.233C143.609 167.861 144.936 166.856 145.754 165.537L145.8 165.459C145.247 163.327 145.045 161.114 144.704 158.941L142.803 148.567L139.497 136.349L134.014 117.769L130.563 107.883C128.679 102.958 126.676 98.074 124.186 93.4201L117.747 82.6816C117.014 81.5602 117.02 80.8857 115.968 80.9898ZM106.832 81.5518L83.5959 81.6896L71.3585 156.073C71.2025 156.91 71.2283 157.784 71.2212 158.632L70.7894 169.675L76.3504 172.52C81.6342 174.877 88.0581 171.767 90.9425 167.12C92.3692 165.009 92.6988 162.156 93.4881 161.006C94.9897 158.82 97.6616 160.125 98.0348 162.369C98.4241 164.71 99.9943 167.389 101.562 169.084C105.802 173.67 111.651 174.547 117.09 171.321C117.683 170.969 119.333 170.174 119.724 169.763L119.504 161.406C119.435 157.59 119.268 154.005 119.003 150.203L116.484 126.51L114.845 115.708L108.146 84.8629C107.914 83.7692 107.604 82.67 107.478 81.5574C107.258 81.5197 107.053 81.5369 106.832 81.5518Z" fill="#CCBD00"/>
</svg>
